<svg width="138" height="93" viewBox="0 0 138 93" fill="none" xmlns="http://www.w3.org/2000/svg">
<g clip-path="url(#clip0_4314_6694)" filter="url(#filter0_d_4314_6694)">
<path d="M114.637 36.9849C114.66 36.5843 114.673 35.7752 114.673 35.7752C114.673 25.3442 106.959 16.7196 96.9346 15.3108C93.829 8.63129 87.0688 4 79.2281 4H76.9985C69.237 4 62.5338 8.53747 59.3864 15.1087H49.7202C38.3452 15.1087 29.1206 24.3331 29.0918 35.7226C18.4163 36.5107 10 45.4369 10 56.3328C10 67.7468 19.2361 77 30.6291 77H107.371C118.764 77 128 67.7468 128 56.3328C128 47.4809 122.444 39.9302 114.637 36.9856V36.9849Z" fill="white"/>
</g>
<defs>
<filter id="filter0_d_4314_6694" x="0" y="0" width="138" height="93" filterUnits="userSpaceOnUse" color-interpolation-filters="sRGB">
<feFlood flood-opacity="0" result="BackgroundImageFix"/>
<feColorMatrix in="SourceAlpha" type="matrix" values="0 0 0 0 0 0 0 0 0 0 0 0 0 0 0 0 0 0 127 0" result="hardAlpha"/>
<feOffset dy="6"/>
<feGaussianBlur stdDeviation="5"/>
<feComposite in2="hardAlpha" operator="out"/>
<feColorMatrix type="matrix" values="0 0 0 0 0.54002 0 0 0 0 0.54002 0 0 0 0 0.54002 0 0 0 0.25 0"/>
<feBlend mode="normal" in2="BackgroundImageFix" result="effect1_dropShadow_4314_6694"/>
<feBlend mode="normal" in="SourceGraphic" in2="effect1_dropShadow_4314_6694" result="shape"/>
</filter>
<clipPath id="clip0_4314_6694">
<rect width="118" height="73" fill="white" transform="translate(10 4)"/>
</clipPath>
</defs>
</svg>
