<svg width="21" height="21" viewBox="0 0 21 21" fill="none" xmlns="http://www.w3.org/2000/svg">
<g filter="url(#filter0_b_362_209)">
<rect width="21" height="21" rx="10.5" fill="#878585" fill-opacity="0.5"/>
<rect width="21" height="21" rx="10.5" fill="url(#paint0_linear_362_209)" fill-opacity="0.7"/>
<rect x="0.75" y="0.75" width="19.5" height="19.5" rx="9.75" stroke="white" stroke-width="1.5"/>
</g>
<path d="M14.7217 14.1035L14.7212 14.1041L14.7217 14.1035ZM11.3126 11.3015L14.4181 14.4072L14.4075 14.4177L11.3018 11.3119C11.0885 11.0985 10.8017 10.9798 10.5 10.9798C10.1982 10.9798 9.91145 11.0985 9.6981 11.3119L6.59273 14.4174L6.58184 14.4065L9.68728 11.3009C10.1298 10.8584 10.1298 10.1404 9.68733 9.69788C9.68731 9.69787 9.68729 9.69785 9.68728 9.69784L6.58307 6.59285L6.59399 6.58193L9.69937 9.6875C9.91271 9.90086 10.1995 10.0196 10.5012 10.0196C10.803 10.0196 11.0897 9.90086 11.3031 9.6875L11.3032 9.6874L14.4073 6.58198L14.4181 6.59282L11.3126 9.69847C10.8701 10.141 10.8701 10.859 11.3126 11.3015L11.843 10.7712L11.3126 11.3015ZM14.7217 6.89644C14.7216 6.89632 14.7214 6.89619 14.7213 6.89607L14.7217 6.89644Z" fill="#4879AF" stroke="white" stroke-width="1.5"/>
<defs>
<filter id="filter0_b_362_209" x="-4" y="-4" width="29" height="29" filterUnits="userSpaceOnUse" color-interpolation-filters="sRGB">
<feFlood flood-opacity="0" result="BackgroundImageFix"/>
<feGaussianBlur in="BackgroundImageFix" stdDeviation="2"/>
<feComposite in2="SourceAlpha" operator="in" result="effect1_backgroundBlur_362_209"/>
<feBlend mode="normal" in="SourceGraphic" in2="effect1_backgroundBlur_362_209" result="shape"/>
</filter>
<linearGradient id="paint0_linear_362_209" x1="1.36273" y1="-1.11243" x2="19.21" y2="19.1108" gradientUnits="userSpaceOnUse">
<stop stop-color="#CCD3D8" stop-opacity="0.45"/>
<stop offset="1" stop-color="#F0F7FF" stop-opacity="0.5"/>
</linearGradient>
</defs>
</svg>
