<svg width="94" height="62" viewBox="0 0 94 62" fill="none" xmlns="http://www.w3.org/2000/svg">
<g filter="url(#filter0_d_0_1)">
<g filter="url(#filter1_d_0_1)">
<path d="M80.2607 24.9479C80.2775 24.6571 80.2869 24.0697 80.2869 24.0697C80.2869 16.4965 74.6649 10.2348 67.3591 9.21197C65.0957 4.36244 60.1688 1 54.4544 1H52.8294C47.1727 1 42.2873 4.29432 39.9935 9.06525H32.9486C24.6584 9.06525 17.9354 15.7624 17.9144 24.0315C10.1339 24.6036 4 31.0844 4 38.995C4 47.2819 10.7314 54 19.0348 54H74.9652C83.2686 54 90 47.2819 90 38.995C90 32.5683 85.951 27.0863 80.2607 24.9484V24.9479Z" fill="white"/>
</g>
</g>
<path d="M33.4277 27.8164V31.3848H35.1094V32.834H33.4277V36.8809H31.6777V27.8164H33.4277ZM23.6387 31.7812C23.6318 29.9287 25.1426 28.6162 27.0566 28.623C28.9639 28.6162 30.4473 29.9287 30.4473 31.7812C30.4473 33.6064 28.9639 34.9395 27.0566 34.9395C25.1426 34.9395 23.6318 33.6064 23.6387 31.7812ZM25.3613 40.0391V35.9238H27.0977V38.6445H33.8789V40.0391H25.3613ZM25.3613 31.7812C25.3477 32.793 26.1064 33.4219 27.0566 33.4219C28.0137 33.4219 28.7451 32.793 28.752 31.7812C28.7451 30.7422 28.0137 30.1338 27.0566 30.1406C26.1064 30.1338 25.3477 30.7422 25.3613 31.7812ZM45.8926 27.8301V36.9219H44.1562V32.8613H41.9277V31.4258H44.1562V27.8301H45.8926ZM35.5703 34.2969C38.1475 33.4902 39.8154 32 40.1367 30.168H36.2129V28.7461H42.0371C42.0371 32.082 39.918 34.5498 36.2812 35.6777L35.5703 34.2969ZM37.6895 40.0391V36.0059H39.4668V38.6445H46.207V40.0391H37.6895ZM61.5801 35.2676V36.6895H56.7539V40.2715H55.0312V36.6895H50.2324V35.2676H61.5801ZM50.8066 33.2305C53.3906 32.9434 54.792 31.7266 55.0039 30.6191H51.2578V29.252H55.0312V27.8301H56.7539V29.252H60.541V30.6191H56.8086C57 31.7129 58.4014 32.9434 60.9785 33.2305L60.3496 34.5977C58.2373 34.3584 56.7129 33.4902 55.9062 32.3623C55.0928 33.5039 53.5615 34.3584 51.4355 34.5977L50.8066 33.2305ZM71.8984 27.8164V32.5879H73.6621V34.0234H71.8984V40.2305H70.1484V27.8164H71.8984ZM61.9453 36.7441C64.8916 35.2676 66.4775 33.2852 66.8057 30.5098H62.6562V29.0879H68.5762C68.5625 32.8066 67.1133 36.0264 62.9297 38.084L61.9453 36.7441Z" fill="#4879AF"/>
<defs>
<filter id="filter0_d_0_1" x="0" y="1" width="94" height="61" filterUnits="userSpaceOnUse" color-interpolation-filters="sRGB">
<feFlood flood-opacity="0" result="BackgroundImageFix"/>
<feColorMatrix in="SourceAlpha" type="matrix" values="0 0 0 0 0 0 0 0 0 0 0 0 0 0 0 0 0 0 127 0" result="hardAlpha"/>
<feOffset dy="4"/>
<feGaussianBlur stdDeviation="2"/>
<feComposite in2="hardAlpha" operator="out"/>
<feColorMatrix type="matrix" values="0 0 0 0 0 0 0 0 0 0 0 0 0 0 0 0 0 0 0.15 0"/>
<feBlend mode="normal" in2="BackgroundImageFix" result="effect1_dropShadow_0_1"/>
<feBlend mode="normal" in="SourceGraphic" in2="effect1_dropShadow_0_1" result="shape"/>
</filter>
</defs>
</svg>
