<svg width="15" height="12" viewBox="0 0 15 12" fill="none" xmlns="http://www.w3.org/2000/svg">
<path d="M0.589509 6.91017L11.535 6.91018C11.6935 6.91018 11.773 7.07861 11.6609 7.17715L7.46113 10.8661C7.23096 11.0683 7.23096 11.3962 7.46113 11.5984L7.74566 11.8483C7.97638 12.051 8.35039 12.0505 8.58042 11.8473L14.5932 6.53703C14.8218 6.33511 14.8218 6.00876 14.5932 5.80683L8.58056 0.496399C8.35053 0.293264 7.97638 0.29278 7.7458 0.495432L7.46126 0.745362C7.2311 0.94753 7.2311 1.27545 7.46126 1.47762L11.6609 5.16659C11.7731 5.26514 11.6937 5.43357 11.535 5.43357L0.58951 5.43357C0.26395 5.43357 6.15889e-05 5.66536 6.15639e-05 5.95132L6.15254e-05 6.39242C6.15004e-05 6.67838 0.26395 6.91017 0.589509 6.91017Z" fill="#BBBBBB"/>
</svg>
