<svg width="89" height="53" viewBox="0 0 89 53" fill="none" xmlns="http://www.w3.org/2000/svg">
<g filter="url(#filter0_b_4226_4178)">
<rect x="2" y="2" width="85" height="49" rx="12" fill="white" fill-opacity="0.6"/>
<rect x="1" y="1" width="87" height="51" rx="13" stroke="url(#paint0_linear_4226_4178)" stroke-width="2"/>
</g>
<path d="M22.5029 20.8164V24.3848H24.1846V25.834H22.5029V29.8809H20.7529V20.8164H22.5029ZM22.9541 31.6445V33.0391H14.4365V28.9238H16.1729V31.6445H22.9541ZM16.1318 21.623C18.0322 21.623 19.5225 22.9355 19.5225 24.7812C19.5225 26.5996 18.0322 27.9395 16.1318 27.9395C14.2178 27.9395 12.7139 26.5996 12.7139 24.7812C12.7139 22.9355 14.2178 21.623 16.1318 21.623ZM16.1318 23.1406C15.1885 23.127 14.4229 23.7422 14.4365 24.7812C14.4229 25.793 15.1885 26.4219 16.1318 26.4219C17.0889 26.4219 17.8135 25.793 17.8271 24.7812C17.8135 23.7422 17.0889 23.127 16.1318 23.1406ZM34.9678 20.8301V29.9219H33.2314V25.8613H31.0029V24.4258H33.2314V20.8301H34.9678ZM31.1123 21.7461C31.1123 25.082 28.9932 27.543 25.3564 28.6777L24.6455 27.2969C27.2227 26.4902 28.8838 25.0068 29.2119 23.168H25.2881V21.7461H31.1123ZM35.2822 31.6445V33.0391H26.7646V29.0059H28.542V31.6445H35.2822ZM50.6826 27.9941V29.3613H45.8154V33.2578H44.0928V29.3613H39.2939V27.9941H50.6826ZM42.3564 21.2949V22.7305H47.5791V21.2949H49.3291V26.791H40.6338V21.2949H42.3564ZM42.3564 25.3965H47.5791V24.0977H42.3564V25.3965ZM61.5615 20.8164V33.2578H59.8115V20.8164H61.5615ZM56.0244 24.7129C56.0244 26.5176 57.0498 28.5547 59.1143 29.4023L58.1709 30.7422C56.7559 30.1611 55.7441 28.9717 55.1768 27.543C54.623 29.0605 53.6045 30.332 52.1553 30.9336L51.2256 29.5938C53.2764 28.7051 54.2881 26.6133 54.2881 24.7129V24.2344H51.6357V22.8398H54.2744V21.0898H56.0107V22.8398H58.6084V24.2344H56.0244V24.7129ZM73.4658 20.8164V33.2578H71.7021V20.8164H73.4658ZM69.7334 22.1152C69.7334 25.8887 68.4072 29.0195 63.9639 31.125L63.0479 29.7305C66.2607 28.2129 67.6758 26.2441 67.9561 23.4824H63.7178V22.1152H69.7334Z" fill="#4879AF"/>
<defs>
<filter id="filter0_b_4226_4178" x="-24" y="-24" width="137" height="101" filterUnits="userSpaceOnUse" color-interpolation-filters="sRGB">
<feFlood flood-opacity="0" result="BackgroundImageFix"/>
<feGaussianBlur in="BackgroundImageFix" stdDeviation="12"/>
<feComposite in2="SourceAlpha" operator="in" result="effect1_backgroundBlur_4226_4178"/>
<feBlend mode="normal" in="SourceGraphic" in2="effect1_backgroundBlur_4226_4178" result="shape"/>
</filter>
<linearGradient id="paint0_linear_4226_4178" x1="92.2133" y1="50.8432" x2="11.285" y2="-3.67355" gradientUnits="userSpaceOnUse">
<stop offset="0.0496781" stop-color="white" stop-opacity="0.7"/>
<stop offset="0.346723" stop-color="white" stop-opacity="0.2"/>
<stop offset="0.935455" stop-color="white" stop-opacity="0.8"/>
<stop offset="1" stop-color="white" stop-opacity="0"/>
</linearGradient>
</defs>
</svg>
