<svg width="24" height="26" viewBox="0 0 24 26" fill="none" xmlns="http://www.w3.org/2000/svg">
<path fill-rule="evenodd" clip-rule="evenodd" d="M13.6698 16.6731C15.0745 16.6731 16.2178 17.8083 16.2178 19.2036V22.7923C16.2178 23.0921 16.4582 23.3325 16.7662 23.3395H18.9898C20.7422 23.3395 22.1667 21.9325 22.1667 20.2035V10.0255C22.1585 9.43046 21.875 8.87046 21.3885 8.49829L13.6967 2.36396C12.6642 1.54613 11.2198 1.54613 10.1838 2.36629L2.5445 8.49596C2.03933 8.87979 1.75583 9.43979 1.75 10.0453V20.2035C1.75 21.9325 3.1745 23.3395 4.92683 23.3395H7.1715C7.48767 23.3395 7.74433 23.0886 7.74433 22.7806C7.74433 22.713 7.7525 22.6453 7.7665 22.5811V19.2036C7.7665 17.8165 8.90283 16.6825 10.297 16.6731H13.6698ZM18.9898 25.0895H16.7452C15.4595 25.0591 14.4678 24.05 14.4678 22.7923V19.2036C14.4678 18.7731 14.1097 18.4231 13.6698 18.4231H10.3028C9.87233 18.4255 9.5165 18.7766 9.5165 19.2036V22.7806C9.5165 22.8681 9.50483 22.9521 9.48033 23.0315C9.35433 24.1865 8.36733 25.0895 7.1715 25.0895H4.92683C2.20967 25.0895 0 22.8973 0 20.2035V10.0371C0.0116667 8.87746 0.546 7.81579 1.46883 7.11696L9.093 0.997792C10.7718 -0.332208 13.111 -0.332208 14.7863 0.995458L22.4653 7.12046C23.3672 7.80762 23.9015 8.86696 23.9167 10.0126V20.2035C23.9167 22.8973 21.707 25.0895 18.9898 25.0895Z" fill="white"/>
</svg>
