<svg width="31" height="31" viewBox="0 0 31 31" fill="none" xmlns="http://www.w3.org/2000/svg">
<g filter="url(#filter0_b_4226_3050)">
<rect width="31" height="31" rx="12.5" fill="white" fill-opacity="0.7"/>
<rect width="31" height="31" rx="12.5" fill="url(#paint0_linear_4226_3050)"/>
<rect x="1" y="1" width="29" height="29" rx="11.5" stroke="white" stroke-width="2"/>
</g>
<path d="M6.98376 15.5162C6.98376 15.5162 6.98378 15.5162 6.98382 15.5162H6.98376ZM7 15.5001C7 15.5001 7 15.5 7 15.5L7 15.5001ZM6.98382 15.4838C6.98378 15.4838 6.98376 15.4838 6.98376 15.4838H6.98382ZM24.0162 15.4838C24.0162 15.4838 24.0162 15.4838 24.0162 15.4838H24.0162ZM15.5162 24.0162C15.5162 24.0162 15.5162 24.0162 15.5162 24.0162V24.0162ZM24.0162 15.5162C24.0162 15.5162 24.0162 15.5162 24.0162 15.5162H24.0162Z" fill="white" stroke="url(#paint1_linear_4226_3050)" stroke-width="2"/>
<defs>
<filter id="filter0_b_4226_3050" x="-4" y="-4" width="39" height="39" filterUnits="userSpaceOnUse" color-interpolation-filters="sRGB">
<feFlood flood-opacity="0" result="BackgroundImageFix"/>
<feGaussianBlur in="BackgroundImageFix" stdDeviation="2"/>
<feComposite in2="SourceAlpha" operator="in" result="effect1_backgroundBlur_4226_3050"/>
<feBlend mode="normal" in="SourceGraphic" in2="effect1_backgroundBlur_4226_3050" result="shape"/>
</filter>
<linearGradient id="paint0_linear_4226_3050" x1="5.5" y1="5.5" x2="28.7768" y2="31" gradientUnits="userSpaceOnUse">
<stop stop-color="#9ABCE1" stop-opacity="0.7"/>
<stop offset="1" stop-color="#BBCFE5" stop-opacity="0.5"/>
</linearGradient>
<linearGradient id="paint1_linear_4226_3050" x1="1.99733" y1="26.3688" x2="8.07377" y2="1.01699" gradientUnits="userSpaceOnUse">
<stop stop-color="#EEF4FA"/>
<stop offset="1" stop-color="white" stop-opacity="0"/>
</linearGradient>
</defs>
</svg>
