<svg width="22" height="26" viewBox="0 0 22 26" fill="none" xmlns="http://www.w3.org/2000/svg">
<path fill-rule="evenodd" clip-rule="evenodd" d="M10.7312 25.25H10.7289C9.42103 25.2488 8.18319 24.6725 7.24403 23.626C6.92086 23.2678 6.95003 22.7136 7.30936 22.3916C7.66869 22.0673 8.22169 22.0965 8.54486 22.457C9.14919 23.1301 9.92503 23.5 10.73 23.5H10.7312C11.5397 23.5 12.319 23.1301 12.9245 22.4558C13.2489 22.0976 13.8019 22.0685 14.16 22.3916C14.5194 22.7148 14.5485 23.269 14.2254 23.6271C13.2827 24.6736 12.0425 25.25 10.7312 25.25Z" fill="white"/>
<path fill-rule="evenodd" clip-rule="evenodd" d="M10.7882 1.75C6.71068 1.75 3.86868 4.94433 3.86868 7.81083C3.86868 10.2363 3.19552 11.3575 2.60052 12.3468C2.12335 13.1413 1.74652 13.769 1.74652 15.1328C1.94135 17.3332 3.39385 18.4893 10.7882 18.4893C18.1417 18.4893 19.6397 17.2818 19.8333 15.057C19.8298 13.769 19.453 13.1413 18.9758 12.3468C18.3808 11.3575 17.7077 10.2363 17.7077 7.81083C17.7077 4.94433 14.8657 1.75 10.7882 1.75ZM10.7882 20.2393C5.33285 20.2393 0.402516 19.8543 1.55805e-05 15.2075C-0.00348442 13.2848 0.583349 12.3072 1.10135 11.4462C1.62518 10.5735 2.11868 9.751 2.11868 7.81083C2.11868 4.039 5.60235 0 10.7882 0C15.974 0 19.4577 4.039 19.4577 7.81083C19.4577 9.751 19.9512 10.5735 20.475 11.4462C20.993 12.3072 21.5798 13.2848 21.5798 15.1328C21.1727 19.8543 16.2435 20.2393 10.7882 20.2393Z" fill="white"/>
</svg>
