<svg width="97" height="52" viewBox="0 0 97 52" fill="none" xmlns="http://www.w3.org/2000/svg">
<g filter="url(#filter0_bd_5475_70)">
<rect x="6" y="2" width="85" height="40" rx="18" fill="white" fill-opacity="0.7" shape-rendering="crispEdges"/>
<rect x="5" y="1" width="87" height="42" rx="19" stroke="url(#paint0_linear_5475_70)" stroke-width="2" shape-rendering="crispEdges"/>
</g>
<path d="M24.412 23.456H25.756V25.84H24.412V23.456ZM30.748 14.784H32.076V29.248H30.748V14.784ZM20.556 26.496L20.38 25.392C23.116 25.376 26.716 25.344 29.836 24.944L29.932 25.92C26.716 26.464 23.228 26.496 20.556 26.496ZM20.684 16.544H29.468V17.616H20.684V16.544ZM25.068 18.448C27.148 18.448 28.556 19.504 28.556 21.12C28.556 22.752 27.148 23.792 25.068 23.792C23.004 23.792 21.596 22.752 21.596 21.12C21.596 19.504 23.004 18.448 25.068 18.448ZM25.068 19.472C23.772 19.472 22.86 20.128 22.86 21.12C22.86 22.112 23.772 22.768 25.068 22.768C26.38 22.768 27.292 22.112 27.292 21.12C27.292 20.128 26.38 19.472 25.068 19.472ZM24.412 14.784H25.74V17.136H24.412V14.784ZM39.1148 22.064H40.4428V25.28H39.1148V22.064ZM45.5308 14.784H46.8588V25.792H45.5308V14.784ZM36.9868 27.84H47.2108V28.928H36.9868V27.84ZM36.9868 24.72H38.3148V28.144H36.9868V24.72ZM35.1148 22.56L34.9388 21.472C37.6108 21.472 41.1948 21.44 44.2668 21.04L44.3628 22.016C41.2428 22.512 37.7388 22.56 35.1148 22.56ZM42.5868 23.328H45.8668V24.304H42.5868V23.328ZM39.6428 15.376C41.7548 15.376 43.1948 16.368 43.1948 17.888C43.1948 19.424 41.7548 20.416 39.6428 20.416C37.5148 20.416 36.0748 19.424 36.0748 17.888C36.0748 16.368 37.5148 15.376 39.6428 15.376ZM39.6428 16.368C38.2828 16.368 37.3388 16.96 37.3388 17.888C37.3388 18.816 38.2828 19.408 39.6428 19.408C40.9868 19.408 41.9308 18.816 41.9308 17.888C41.9308 16.96 40.9868 16.368 39.6428 16.368ZM59.5135 14.768H60.8575V29.248H59.5135V14.768ZM60.4895 20.64H63.1615V21.744H60.4895V20.64ZM55.8175 16.336H57.1135C57.1135 20.448 55.2255 24.16 50.5535 26.512L49.8175 25.488C53.8175 23.456 55.8175 20.368 55.8175 16.544V16.336ZM50.4895 16.336H56.5055V17.424H50.4895V16.336ZM74.9683 14.784H76.3123V22.544H74.9683V14.784ZM66.9843 23.264H68.2963V25.024H75.0003V23.264H76.3123V29.056H66.9843V23.264ZM68.2963 26.08V27.984H75.0003V26.08H68.2963ZM68.5523 15.472C70.7443 15.472 72.3123 16.832 72.3123 18.8C72.3123 20.784 70.7443 22.144 68.5523 22.144C66.3603 22.144 64.7763 20.784 64.7763 18.8C64.7763 16.832 66.3603 15.472 68.5523 15.472ZM68.5523 16.576C67.1123 16.576 66.0723 17.488 66.0723 18.8C66.0723 20.112 67.1123 21.024 68.5523 21.024C69.9923 21.024 71.0323 20.112 71.0323 18.8C71.0323 17.488 69.9923 16.576 68.5523 16.576Z" fill="#4879AF"/>
<defs>
<filter id="filter0_bd_5475_70" x="-20" y="-24" width="137" height="92" filterUnits="userSpaceOnUse" color-interpolation-filters="sRGB">
<feFlood flood-opacity="0" result="BackgroundImageFix"/>
<feGaussianBlur in="BackgroundImageFix" stdDeviation="12"/>
<feComposite in2="SourceAlpha" operator="in" result="effect1_backgroundBlur_5475_70"/>
<feColorMatrix in="SourceAlpha" type="matrix" values="0 0 0 0 0 0 0 0 0 0 0 0 0 0 0 0 0 0 127 0" result="hardAlpha"/>
<feOffset dy="4"/>
<feGaussianBlur stdDeviation="2"/>
<feComposite in2="hardAlpha" operator="out"/>
<feColorMatrix type="matrix" values="0 0 0 0 0 0 0 0 0 0 0 0 0 0 0 0 0 0 0.1 0"/>
<feBlend mode="normal" in2="effect1_backgroundBlur_5475_70" result="effect2_dropShadow_5475_70"/>
<feBlend mode="normal" in="SourceGraphic" in2="effect2_dropShadow_5475_70" result="shape"/>
</filter>
<linearGradient id="paint0_linear_5475_70" x1="96.2133" y1="41.872" x2="26.2223" y2="-15.8854" gradientUnits="userSpaceOnUse">
<stop offset="0.0496781" stop-color="white" stop-opacity="0.7"/>
<stop offset="0.346723" stop-color="white" stop-opacity="0.2"/>
<stop offset="0.935455" stop-color="white" stop-opacity="0.8"/>
<stop offset="1" stop-color="white" stop-opacity="0"/>
</linearGradient>
</defs>
</svg>
