<svg width="138" height="93" viewBox="0 0 138 93" fill="none" xmlns="http://www.w3.org/2000/svg">
<g filter="url(#filter0_d_2288_8504)">
<path d="M114.637 38.9849C114.66 38.5843 114.673 37.7752 114.673 37.7752C114.673 27.3442 106.959 18.7196 96.9346 17.3108C93.829 10.6313 87.0688 6 79.2281 6H76.9985C69.237 6 62.5338 10.5375 59.3864 17.1087H49.7202C38.3452 17.1087 29.1206 26.3331 29.0918 37.7226C18.4163 38.5107 10 47.4369 10 58.3328C10 69.7468 19.2361 79 30.6291 79H107.371C118.764 79 128 69.7468 128 58.3328C128 49.4809 122.444 41.9295 114.637 38.9849Z" fill="white" fill-opacity="0.15" shape-rendering="crispEdges"/>
<path d="M114.138 38.9561L114.116 39.323L114.46 39.4527C122.079 42.3262 127.5 49.6953 127.5 58.3328C127.5 69.4715 118.487 78.5 107.371 78.5H30.6291C19.5131 78.5 10.5 69.4715 10.5 58.3328C10.5 47.7 18.7131 38.9901 29.1286 38.2212L29.5906 38.1871L29.5918 37.7238C29.6199 26.609 38.6218 17.6087 49.7202 17.6087H59.3864H59.7013L59.8373 17.3247C62.9049 10.9201 69.437 6.5 76.9985 6.5H79.2281C86.8667 6.5 93.4543 11.0115 96.4812 17.5216L96.5958 17.7681L96.865 17.806C106.644 19.1803 114.171 27.5941 114.173 37.7712C114.173 37.7726 114.173 37.7739 114.173 37.7752L114.173 37.7761L114.172 37.8021L114.17 37.8983C114.169 37.9798 114.167 38.0926 114.164 38.2177C114.157 38.4703 114.149 38.7651 114.138 38.9561Z" stroke="url(#paint0_linear_2288_8504)" shape-rendering="crispEdges"/>
</g>
<defs>
<filter id="filter0_d_2288_8504" x="0" y="0" width="138" height="93" filterUnits="userSpaceOnUse" color-interpolation-filters="sRGB">
<feFlood flood-opacity="0" result="BackgroundImageFix"/>
<feColorMatrix in="SourceAlpha" type="matrix" values="0 0 0 0 0 0 0 0 0 0 0 0 0 0 0 0 0 0 127 0" result="hardAlpha"/>
<feOffset dy="4"/>
<feGaussianBlur stdDeviation="5"/>
<feComposite in2="hardAlpha" operator="out"/>
<feColorMatrix type="matrix" values="0 0 0 0 0.524972 0 0 0 0 0.524972 0 0 0 0 0.524972 0 0 0 0.25 0"/>
<feBlend mode="normal" in2="BackgroundImageFix" result="effect1_dropShadow_2288_8504"/>
<feBlend mode="normal" in="SourceGraphic" in2="effect1_dropShadow_2288_8504" result="shape"/>
</filter>
<linearGradient id="paint0_linear_2288_8504" x1="135.237" y1="78.7664" x2="18.0734" y2="5.22033" gradientUnits="userSpaceOnUse">
<stop offset="0.0496781" stop-color="white" stop-opacity="0.7"/>
<stop offset="0.346723" stop-color="white" stop-opacity="0.2"/>
<stop offset="0.935455" stop-color="white" stop-opacity="0.8"/>
<stop offset="1" stop-color="white" stop-opacity="0"/>
</linearGradient>
</defs>
</svg>
