<svg xmlns="http://www.w3.org/2000/svg" width="293" height="257" fill="none"><g filter="url(#a)"><path fill="url(#b)" fill-opacity=".3" d="M30.46 31.118h91.04v-.363L96.737 5.245C94.1 2.531 90.448 1 86.626 1h-56.67C14.51 1 2 13.258 2 28.389V59c0-15.4 12.74-27.882 28.46-27.882Z"/><path stroke="url(#c)" stroke-miterlimit="10" stroke-width="2" d="M30.46 31.118h91.04v-.363L96.737 5.245C94.1 2.531 90.448 1 86.626 1h-56.67C14.51 1 2 13.258 2 28.389V59c0-15.4 12.74-27.882 28.46-27.882Z"/></g><path fill="url(#d)" fill-opacity=".5" stroke="url(#e)" stroke-miterlimit="10" stroke-width="3" d="M262.5 31H30.46C14.74 31 2 43.757 2 59.496v167.008C2 242.243 14.74 255 30.46 255H262.5c15.719 0 28.459-12.757 28.459-28.496V59.496C290.959 43.757 278.219 31 262.5 31Z"/><path fill="url(#f)" fill-opacity=".7" fill-rule="evenodd" d="M2 209.636c14.475-24.573 62.879-70.88 145.5-66.136 83.6 4.8 120.5-70 128.5-108l.68-.717c8.534 4.92 14.279 14.144 14.279 24.713v167.008c0 15.739-12.74 28.496-28.459 28.496H30.46C14.74 255 2 242.243 2 226.504v-16.868Z" clip-rule="evenodd"/><defs><linearGradient id="b" x1="33.402" x2="90.098" y1="1" y2="59" gradientUnits="userSpaceOnUse"><stop offset=".273" stop-color="#fff"/><stop offset="1" stop-color="#E4DEDE"/></linearGradient><linearGradient id="c" x1="128.829" x2="27.982" y1="58.814" y2="-21.874" gradientUnits="userSpaceOnUse"><stop offset=".05" stop-color="#fff" stop-opacity=".7"/><stop offset=".347" stop-color="#fff" stop-opacity=".2"/><stop offset=".935" stop-color="#fff" stop-opacity=".8"/><stop offset="1" stop-color="#fff" stop-opacity="0"/></linearGradient><linearGradient id="d" x1="28.422" x2="312.132" y1="45.183" y2="244.357" gradientUnits="userSpaceOnUse"><stop offset=".082" stop-color="#fff" stop-opacity=".7"/><stop offset=".803" stop-color="#fff"/></linearGradient><linearGradient id="e" x1="308.682" x2="-11.046" y1="254.283" y2="94.115" gradientUnits="userSpaceOnUse"><stop offset=".05" stop-color="#fff" stop-opacity=".7"/><stop offset=".347" stop-color="#fff" stop-opacity=".2"/><stop offset=".935" stop-color="#fff" stop-opacity=".8"/><stop offset="1" stop-color="#fff" stop-opacity="0"/></linearGradient><linearGradient id="f" x1="129" x2="232" y1="124.5" y2="255" gradientUnits="userSpaceOnUse"><stop stop-color="#fff" stop-opacity=".3"/><stop offset="1" stop-color="#fff" stop-opacity=".7"/></linearGradient><filter id="a" width="129.5" height="67" x="-3" y="-4" color-interpolation-filters="sRGB" filterUnits="userSpaceOnUse"><feFlood flood-opacity="0" result="BackgroundImageFix"/><feGaussianBlur in="BackgroundImageFix" stdDeviation="2"/><feComposite in2="SourceAlpha" operator="in" result="effect1_backgroundBlur_4844_9853"/><feBlend in="SourceGraphic" in2="effect1_backgroundBlur_4844_9853" result="shape"/></filter></defs></svg>