<svg width="12" height="13" viewBox="0 0 12 13" fill="none" xmlns="http://www.w3.org/2000/svg">
<path d="M8.9467 12.8082H4.3365C3.77356 12.8082 3.24434 12.5889 2.8463 12.1909C2.44826 11.7928 2.229 11.2636 2.229 10.7007V4.00764C2.229 3.4447 2.44826 2.91548 2.8463 2.51744C3.24434 2.1194 3.77356 1.90015 4.3365 1.90015H8.9466C9.50954 1.90015 10.0388 2.1194 10.4368 2.51744C10.8348 2.91548 11.0541 3.4447 11.0541 4.00764V10.7007C11.0541 11.2636 10.8348 11.7928 10.4368 12.1909C10.0388 12.5889 9.50954 12.8082 8.9466 12.8082H8.9467ZM4.3365 3.04219C3.80417 3.04219 3.37105 3.47531 3.37105 4.00764V10.7007C3.37105 11.233 3.80417 11.6661 4.3365 11.6661H8.9466C9.47894 11.6661 9.91206 11.233 9.91206 10.7007V4.00764C9.91206 3.47531 9.47894 3.04219 8.9466 3.04219H4.3365Z" fill="#A6C7E9"/>
<path d="M0.570976 7.63281C0.255615 7.63281 0 7.37719 0 7.06183V3.38886C0 2.93162 0.0897117 2.48772 0.266577 2.06958C0.437322 1.66597 0.681517 1.30365 0.992585 0.992585C1.30365 0.681517 1.66597 0.437231 2.06958 0.266577C2.48772 0.0897117 2.93162 0 3.38886 0H6.64159C6.95695 0 7.21257 0.255615 7.21257 0.570976C7.21257 0.886337 6.95695 1.14195 6.64159 1.14195H3.38886C2.78874 1.14195 2.22443 1.37564 1.80008 1.80008C1.37573 2.22443 1.14195 2.78865 1.14195 3.38886V7.06183C1.14195 7.37719 0.886337 7.63281 0.570976 7.63281Z" fill="#A6C7E9"/>
</svg>
