<svg width="32" height="32" viewBox="0 0 32 32" fill="none" xmlns="http://www.w3.org/2000/svg">
<g filter="url(#filter0_b_5409_3378)">
<rect width="32" height="31.36" rx="11" fill="white" fill-opacity="0.5"/>
<rect width="32" height="31.36" rx="11" fill="url(#paint0_linear_5409_3378)"/>
<rect x="1" y="1" width="30" height="29.36" rx="10" stroke="url(#paint1_linear_5409_3378)" stroke-width="2"/>
</g>
<mask id="path-3-inside-1_5409_3378" fill="white">
<path d="M23.2707 16.1836H17.0142V22.4401C17.0142 22.8916 16.6485 23.2573 16.197 23.2573C15.7455 23.2573 15.3798 22.8916 15.3798 22.4401V16.1836H9.12333C8.67184 16.1836 8.30615 15.8179 8.30615 15.3664C8.30615 14.9149 8.67184 14.5492 9.12333 14.5492H15.3798V8.29273C15.3798 7.84124 15.7455 7.47555 16.197 7.47555C16.6485 7.47555 17.0142 7.84124 17.0142 8.29273V14.5492H23.2707C23.7222 14.5492 24.0879 14.9149 24.0879 15.3664C24.0879 15.8179 23.7222 16.1836 23.2707 16.1836Z"/>
</mask>
<path d="M23.2707 16.1836H17.0142V22.4401C17.0142 22.8916 16.6485 23.2573 16.197 23.2573C15.7455 23.2573 15.3798 22.8916 15.3798 22.4401V16.1836H9.12333C8.67184 16.1836 8.30615 15.8179 8.30615 15.3664C8.30615 14.9149 8.67184 14.5492 9.12333 14.5492H15.3798V8.29273C15.3798 7.84124 15.7455 7.47555 16.197 7.47555C16.6485 7.47555 17.0142 7.84124 17.0142 8.29273V14.5492H23.2707C23.7222 14.5492 24.0879 14.9149 24.0879 15.3664C24.0879 15.8179 23.7222 16.1836 23.2707 16.1836Z" fill="white"/>
<path d="M17.0142 16.1836H15.0142V14.1836H17.0142V16.1836ZM15.3798 16.1836V14.1836H17.3798V16.1836H15.3798ZM15.3798 14.5492H17.3798V16.5492H15.3798V14.5492ZM17.0142 14.5492V16.5492H15.0142V14.5492H17.0142ZM23.2707 18.1836H17.0142V14.1836H23.2707V18.1836ZM19.0142 16.1836V22.4401H15.0142V16.1836H19.0142ZM19.0142 22.4401C19.0142 23.9961 17.7531 25.2573 16.197 25.2573V21.2573C15.5439 21.2573 15.0142 21.787 15.0142 22.4401H19.0142ZM16.197 25.2573C14.6409 25.2573 13.3798 23.9961 13.3798 22.4401H17.3798C17.3798 21.787 16.8501 21.2573 16.197 21.2573V25.2573ZM13.3798 22.4401V16.1836H17.3798V22.4401H13.3798ZM15.3798 18.1836H9.12333V14.1836H15.3798V18.1836ZM9.12333 18.1836C7.56727 18.1836 6.30615 16.9225 6.30615 15.3664H10.3062C10.3062 14.7133 9.77641 14.1836 9.12333 14.1836V18.1836ZM6.30615 15.3664C6.30615 13.8103 7.56727 12.5492 9.12333 12.5492V16.5492C9.77641 16.5492 10.3062 16.0195 10.3062 15.3664H6.30615ZM9.12333 12.5492H15.3798V16.5492H9.12333V12.5492ZM13.3798 14.5492V8.29273H17.3798V14.5492H13.3798ZM13.3798 8.29273C13.3798 6.73667 14.6409 5.47555 16.197 5.47555V9.47555C16.8501 9.47555 17.3798 8.94581 17.3798 8.29273H13.3798ZM16.197 5.47555C17.7531 5.47555 19.0142 6.73667 19.0142 8.29273H15.0142C15.0142 8.94581 15.5439 9.47555 16.197 9.47555V5.47555ZM19.0142 8.29273V14.5492H15.0142V8.29273H19.0142ZM17.0142 12.5492H23.2707V16.5492H17.0142V12.5492ZM23.2707 12.5492C24.8267 12.5492 26.0879 13.8103 26.0879 15.3664H22.0879C22.0879 16.0195 22.6176 16.5492 23.2707 16.5492V12.5492ZM26.0879 15.3664C26.0879 16.9225 24.8267 18.1836 23.2707 18.1836V14.1836C22.6176 14.1836 22.0879 14.7133 22.0879 15.3664H26.0879Z" fill="url(#paint2_linear_5409_3378)" mask="url(#path-3-inside-1_5409_3378)"/>
<defs>
<filter id="filter0_b_5409_3378" x="-4" y="-4" width="40" height="39.36" filterUnits="userSpaceOnUse" color-interpolation-filters="sRGB">
<feFlood flood-opacity="0" result="BackgroundImageFix"/>
<feGaussianBlur in="BackgroundImageFix" stdDeviation="2"/>
<feComposite in2="SourceAlpha" operator="in" result="effect1_backgroundBlur_5409_3378"/>
<feBlend mode="normal" in="SourceGraphic" in2="effect1_backgroundBlur_5409_3378" result="shape"/>
</filter>
<linearGradient id="paint0_linear_5409_3378" x1="-4.15308" y1="-4.15308" x2="28.6563" y2="29.0716" gradientUnits="userSpaceOnUse">
<stop stop-color="#ADD4EA" stop-opacity="0.9"/>
<stop offset="1" stop-color="#BBCFE5" stop-opacity="0.5"/>
</linearGradient>
<linearGradient id="paint1_linear_5409_3378" x1="-6.74133" y1="-2.25931" x2="3.1086" y2="39.6748" gradientUnits="userSpaceOnUse">
<stop stop-color="#ECF5FF"/>
<stop offset="0.883352" stop-color="white" stop-opacity="0.5"/>
</linearGradient>
<linearGradient id="paint2_linear_5409_3378" x1="4.98147" y1="24.3942" x2="10.0287" y2="3.33659" gradientUnits="userSpaceOnUse">
<stop stop-color="#EEF4FA"/>
<stop offset="1" stop-color="white" stop-opacity="0"/>
</linearGradient>
</defs>
</svg>
