<svg width="94" height="61" viewBox="0 0 94 61" fill="none" xmlns="http://www.w3.org/2000/svg">
<g filter="url(#filter0_d_369_729)">
<path d="M80.2607 24.9479C80.2775 24.6571 80.2869 24.0697 80.2869 24.0697C80.2869 16.4965 74.6649 10.2348 67.3591 9.21197C65.0957 4.36244 60.1688 1 54.4544 1H52.8294C47.1727 1 42.2873 4.29432 39.9935 9.06525H32.9486C24.6584 9.06525 17.9354 15.7624 17.9144 24.0315C10.1339 24.6036 4 31.0844 4 38.995C4 47.2819 10.7314 54 19.0348 54H74.9652C83.2686 54 90 47.2819 90 38.995C90 32.5683 85.951 27.0863 80.2607 24.9484V24.9479Z" fill="white"/>
</g>
<defs>
<filter id="filter0_d_369_729" x="0" y="0" width="94" height="61" filterUnits="userSpaceOnUse" color-interpolation-filters="sRGB">
<feFlood flood-opacity="0" result="BackgroundImageFix"/>
<feColorMatrix in="SourceAlpha" type="matrix" values="0 0 0 0 0 0 0 0 0 0 0 0 0 0 0 0 0 0 127 0" result="hardAlpha"/>
<feOffset dy="3"/>
<feGaussianBlur stdDeviation="2"/>
<feComposite in2="hardAlpha" operator="out"/>
<feColorMatrix type="matrix" values="0 0 0 0 0.603818 0 0 0 0 0.603818 0 0 0 0 0.603818 0 0 0 0.25 0"/>
<feBlend mode="normal" in2="BackgroundImageFix" result="effect1_dropShadow_369_729"/>
<feBlend mode="normal" in="SourceGraphic" in2="effect1_dropShadow_369_729" result="shape"/>
</filter>
</defs>
</svg>
