<svg width="293" height="257" viewBox="0 0 293 257" fill="none" xmlns="http://www.w3.org/2000/svg">
<path d="M30.4593 31.1176H121.5V30.7548L96.737 5.2455C94.1 2.53128 90.4481 1 86.6259 1L29.9556 1C14.5111 1 2 13.2575 2 28.3889V59C2 43.6001 14.7407 31.1176 30.4593 31.1176Z" fill="white" fill-opacity="0.15" stroke="url(#paint0_linear_4226_3050)" stroke-width="2" stroke-miterlimit="10"/>
<path d="M262.5 31L30.4593 31C14.7407 31 2 43.7572 2 59.496V226.504C2 242.243 14.7407 255 30.4593 255H262.5C278.219 255 290.959 242.243 290.959 226.504V59.496C290.959 43.7572 278.219 31 262.5 31Z" fill="url(#paint1_linear_4226_3050)" fill-opacity="0.7" stroke="url(#paint2_linear_4226_3050)" stroke-width="3" stroke-miterlimit="10"/>
<g clip-path="url(#clip0_4226_3050)">
<path d="M267.562 59.9713H274.511V59.4184H268.287C268.584 59.2695 268.891 59.1101 269.205 58.9407C272.084 57.3895 274.087 55.8036 275.159 54.2277C275.944 53.073 276.042 51.9585 275.987 51.2268C275.92 50.348 275.583 49.5101 275.087 48.9851C275.079 48.977 275.058 48.9565 275.051 48.9495C275.044 48.9428 275.024 48.922 275.016 48.9142C274.49 48.4167 273.652 48.0802 272.773 48.0131C272.042 47.9574 270.927 48.0558 269.772 48.8412C268.196 49.913 266.611 51.9162 265.059 54.7946C264.89 55.1086 264.731 55.4163 264.582 55.713V49.4889H264.029V56.4376C262.896 54.0883 260.967 50.6905 258.676 49.1329C256.805 47.8604 254.746 48.3448 253.874 49.17C253.866 49.177 253.845 49.1982 253.845 49.1982C253.845 49.1982 253.824 49.2194 253.817 49.2268C252.992 50.0989 252.508 52.1582 253.78 54.0291C255.338 56.3201 258.735 58.2492 261.084 59.3817H254.136V59.9346H261.16C258.809 61.0618 255.355 63.0081 253.78 65.3236C252.508 67.1945 252.992 69.2537 253.817 70.1259C253.824 70.1333 253.845 70.1541 253.845 70.1541C253.845 70.1541 253.866 70.1756 253.874 70.1827C254.746 71.0078 256.805 71.4922 258.676 70.2201C260.992 68.6455 262.938 65.1913 264.065 62.8399V69.8641H264.618V62.9154C265.751 65.2646 267.68 68.6624 269.971 70.2201C271.842 71.4922 273.901 71.0078 274.773 70.1827C274.78 70.1756 274.802 70.1541 274.802 70.1541C274.802 70.1541 274.823 70.1329 274.83 70.1259C275.655 69.2541 276.139 67.1948 274.867 65.3236C273.309 63.0325 269.912 61.1034 267.562 59.9709V59.9713ZM270.297 50.4298C271.626 49.5351 273.011 49.7912 273.588 50.3349C273.593 50.3395 273.606 50.3536 273.606 50.3536C273.606 50.3536 273.62 50.3677 273.625 50.3723C273.63 50.3769 273.644 50.391 273.644 50.391C273.644 50.391 273.658 50.4051 273.662 50.4097C274.206 50.9865 274.463 52.3713 273.567 53.7003C272.002 56.0259 266.18 57.8167 266.18 57.8167C266.18 57.8167 267.971 51.9948 270.297 50.4295L270.297 50.4298Z" fill="white"/>
</g>
<defs>
<linearGradient id="paint0_linear_4226_3050" x1="128.829" y1="58.8144" x2="27.9819" y2="-21.874" gradientUnits="userSpaceOnUse">
<stop offset="0.0496781" stop-color="white" stop-opacity="0.7"/>
<stop offset="0.346723" stop-color="white" stop-opacity="0.2"/>
<stop offset="0.935455" stop-color="white" stop-opacity="0.8"/>
<stop offset="1" stop-color="white" stop-opacity="0"/>
</linearGradient>
<linearGradient id="paint1_linear_4226_3050" x1="28.422" y1="45.1834" x2="312.132" y2="244.357" gradientUnits="userSpaceOnUse">
<stop offset="0.0821648" stop-color="white" stop-opacity="0.7"/>
<stop offset="0.803385" stop-color="white"/>
</linearGradient>
<linearGradient id="paint2_linear_4226_3050" x1="308.682" y1="254.283" x2="-11.046" y2="94.1152" gradientUnits="userSpaceOnUse">
<stop offset="0.0496781" stop-color="white" stop-opacity="0.7"/>
<stop offset="0.346723" stop-color="white" stop-opacity="0.2"/>
<stop offset="0.935455" stop-color="white" stop-opacity="0.8"/>
<stop offset="1" stop-color="white" stop-opacity="0"/>
</linearGradient>
<clipPath id="clip0_4226_3050">
<rect width="23" height="23" fill="white" transform="translate(253 48)"/>
</clipPath>
</defs>
</svg>
