<svg width="340" height="209" viewBox="0 0 340 209" fill="none" xmlns="http://www.w3.org/2000/svg">
<path d="M304.908 2L35.0922 2C16.8148 2 2 13.6751 2 28.0789V180.921C2 195.325 16.8148 207 35.0922 207H304.908C323.185 207 338 195.325 338 180.921V28.0789C338 13.6751 323.185 2 304.908 2Z" fill="url(#paint0_linear_4844_7049)" fill-opacity="0.85" stroke="url(#paint1_linear_4844_7049)" stroke-width="3" stroke-miterlimit="10"/>
<path d="M29.5625 181.971H36.5112V181.418H30.2871C30.5838 181.269 30.8915 181.11 31.2055 180.94C34.0843 179.389 36.0871 177.803 37.1589 176.227C37.9439 175.073 38.0424 173.958 37.987 173.227C37.9203 172.348 37.5834 171.51 37.0866 170.985C37.0792 170.977 37.0584 170.956 37.051 170.949C37.0443 170.943 37.0238 170.922 37.0157 170.914C36.4904 170.417 35.6521 170.08 34.7733 170.013C34.0416 169.957 32.9271 170.056 31.7724 170.841C30.1961 171.913 28.6106 173.916 27.0594 176.794C26.8904 177.108 26.7309 177.416 26.5817 177.713V171.489H26.0289V178.437C24.8964 176.088 22.9669 172.69 20.6762 171.133C18.8053 169.86 16.746 170.345 15.8739 171.17C15.8665 171.177 15.8453 171.198 15.8453 171.198C15.8453 171.198 15.8238 171.219 15.8167 171.227C14.9919 172.099 14.5075 174.158 15.7797 176.029C17.3377 178.32 20.7351 180.249 23.0844 181.381H16.136V181.934H23.1602C20.8088 183.062 17.3546 185.008 15.7797 187.323C14.5075 189.194 14.9919 191.253 15.8171 192.126C15.8242 192.133 15.8453 192.154 15.8453 192.154C15.8453 192.154 15.8665 192.175 15.8739 192.182C16.7457 193.008 18.8053 193.492 20.6762 192.22C22.992 190.645 24.938 187.191 26.0652 184.84V191.864H26.618V184.915C27.7505 187.264 29.68 190.662 31.9707 192.22C33.8416 193.492 35.9009 193.008 36.773 192.182C36.7804 192.175 36.8016 192.154 36.8016 192.154C36.8016 192.154 36.8231 192.133 36.8298 192.126C37.655 191.254 38.1394 189.195 36.8672 187.323C35.3092 185.032 31.9118 183.103 29.5625 181.971V181.971ZM32.297 172.43C33.626 171.535 35.0108 171.791 35.5876 172.335C35.5925 172.339 35.6063 172.353 35.6063 172.353C35.6063 172.353 35.6204 172.367 35.625 172.372C35.6299 172.377 35.6437 172.391 35.6437 172.391C35.6437 172.391 35.6578 172.405 35.6624 172.409C36.2064 172.986 36.4625 174.371 35.5675 175.7C34.0018 178.026 28.1802 179.816 28.1802 179.816C28.1802 179.816 29.9714 173.995 32.2967 172.429L32.297 172.43Z" fill="#AAB9C1" fill-opacity="0.47"/>
<defs>
<linearGradient id="paint0_linear_4844_7049" x1="2" y1="124.5" x2="329.193" y2="271.677" gradientUnits="userSpaceOnUse">
<stop offset="0.0821648" stop-color="white" stop-opacity="0.7"/>
<stop offset="0.803385" stop-color="white"/>
</linearGradient>
<linearGradient id="paint1_linear_4844_7049" x1="358.608" y1="206.344" x2="27.6213" y2="-4.32577" gradientUnits="userSpaceOnUse">
<stop offset="0.0496781" stop-color="white" stop-opacity="0.7"/>
<stop offset="0.346723" stop-color="white" stop-opacity="0.2"/>
<stop offset="0.935455" stop-color="white" stop-opacity="0.8"/>
<stop offset="1" stop-color="white" stop-opacity="0"/>
</linearGradient>
</defs>
</svg>
