<svg width="13" height="14" viewBox="0 0 13 14" fill="none" xmlns="http://www.w3.org/2000/svg">
<g opacity="0.9">
<path d="M6.50033 6.9798C8.35274 6.9798 9.85442 5.41732 9.85442 3.4899C9.85442 1.56248 8.35274 0 6.50033 0C4.64792 0 3.14624 1.56248 3.14624 3.4899C3.14624 5.41732 4.64792 6.9798 6.50033 6.9798Z" fill="white"/>
<path d="M6.50035 7.97169C5.86978 7.97169 5.27382 7.83871 4.74563 7.60287C4.54721 7.5147 4.32337 7.51764 4.12283 7.59993C1.89713 8.51024 0.258216 10.7416 0.00330507 13.3028C-0.0341195 13.676 0.251155 13.9993 0.611984 13.9993H12.388C12.7488 13.9993 13.0341 13.676 12.9967 13.3028C12.7418 10.7408 11.1029 8.50951 8.87717 7.59919C8.67663 7.51691 8.45279 7.51397 8.25437 7.60213C7.72618 7.83798 7.13022 7.97096 6.49965 7.97096L6.50035 7.97169Z" fill="white"/>
</g>
</svg>
