<svg width="25" height="19" viewBox="0 0 25 19" fill="none" xmlns="http://www.w3.org/2000/svg">
<path d="M9.17791 15.2809L2.42304 8.53094C2.21281 8.32104 1.8729 8.32126 1.6631 8.53159L1.15754 9.03841C0.946877 9.2496 0.947523 9.59231 1.15927 9.80264L9.25093 17.8437C9.46935 18.0608 9.82455 18.0504 10.0298 17.8209L23.8624 2.36552C24.0585 2.14655 24.0432 1.81076 23.8282 1.61036L23.3278 1.14414C23.1075 0.938991 22.7622 0.954755 22.5614 1.17912L9.95788 15.2591C9.75217 15.4891 9.39611 15.499 9.17791 15.2809Z" fill="url(#paint0_linear_4314_6943)" fill-opacity="0.15" stroke="url(#paint1_linear_4314_6943)" stroke-width="2" stroke-miterlimit="10"/>
<defs>
<linearGradient id="paint0_linear_4314_6943" x1="1" y1="13" x2="22" y2="3" gradientUnits="userSpaceOnUse">
<stop stop-color="white"/>
<stop offset="0.735" stop-color="#999999"/>
</linearGradient>
<linearGradient id="paint1_linear_4314_6943" x1="25.4107" y1="17.9456" x2="0.461931" y2="4.83768" gradientUnits="userSpaceOnUse">
<stop offset="0.247771" stop-color="white" stop-opacity="0.7"/>
<stop offset="0.636811" stop-color="white"/>
<stop offset="0.935455" stop-color="white" stop-opacity="0.3"/>
<stop offset="1" stop-color="white" stop-opacity="0"/>
</linearGradient>
</defs>
</svg>
