<svg width="9" height="9" viewBox="0 0 9 9" fill="none" xmlns="http://www.w3.org/2000/svg">
<g opacity="0.9">
<path d="M4.17903 4.48725C5.36993 4.48725 6.33535 3.48274 6.33535 2.24362C6.33535 1.0045 5.36993 0 4.17903 0C2.98813 0 2.02272 1.0045 2.02272 2.24362C2.02272 3.48274 2.98813 4.48725 4.17903 4.48725Z" fill="white"/>
<path d="M4.17902 5.1249C3.77363 5.1249 3.39049 5.03941 3.05093 4.88779C2.92336 4.83111 2.77946 4.833 2.65053 4.8859C1.21965 5.47113 0.166005 6.90563 0.0021248 8.55221C-0.0219351 8.79216 0.161465 8.99999 0.393439 8.99999H7.96414C8.19612 8.99999 8.37952 8.79216 8.35546 8.55221C8.19158 6.90516 7.13793 5.47066 5.70705 4.88542C5.57812 4.83252 5.43422 4.83063 5.30666 4.88731C4.96709 5.03894 4.58395 5.12443 4.17856 5.12443L4.17902 5.1249Z" fill="white"/>
</g>
</svg>
