<svg width="118" height="73" viewBox="0 0 118 73" fill="none" xmlns="http://www.w3.org/2000/svg">
<path d="M104.637 32.9849C104.66 32.5843 104.673 31.7752 104.673 31.7752C104.673 21.3442 96.9588 12.7196 86.9346 11.3108C83.829 4.63129 77.0688 0 69.2281 0H66.9985C59.237 0 52.5338 4.53747 49.3864 11.1087H39.7202C28.3452 11.1087 19.1206 20.3331 19.0918 31.7226C8.41632 32.5107 0 41.4369 0 52.3328C0 63.7468 9.23613 73 20.6291 73H97.3709C108.764 73 118 63.7468 118 52.3328C118 43.4809 112.444 35.9302 104.637 32.9856V32.9849Z" fill="white"/>
</svg>
