<svg width="23" height="23" viewBox="0 0 23 23" fill="none" xmlns="http://www.w3.org/2000/svg">
<g clip-path="url(#clip0_4414_8784)">
<path d="M14.5625 11.9713H21.5112V11.4184H15.2871C15.5838 11.2696 15.8915 11.1101 16.2055 10.9408C19.0843 9.3895 21.0871 7.80367 22.1589 6.22772C22.9439 5.07301 23.0424 3.95852 22.987 3.22682C22.9203 2.348 22.5834 1.5101 22.0866 0.985134C22.0792 0.97702 22.0584 0.956557 22.051 0.949502C22.0443 0.942798 22.0238 0.921983 22.0157 0.914222C21.4904 0.416776 20.6521 0.0802058 19.7733 0.0131741C19.0416 -0.0425681 17.9271 0.0558627 16.7724 0.841192C15.1961 1.91299 13.6106 3.91619 12.0594 6.79467C11.8904 7.10866 11.7309 7.4163 11.5817 7.713V1.48893H11.0289V8.43765C9.89637 6.08837 7.96691 2.69056 5.67619 1.13296C3.8053 -0.139588 1.74602 0.344805 0.873898 1.17C0.86649 1.17706 0.845322 1.19822 0.845322 1.19822C0.845322 1.19822 0.823801 1.21939 0.816745 1.2268C-0.00809813 2.09892 -0.492491 4.15821 0.779701 6.0291C2.33766 8.32017 5.73511 10.2493 8.0844 11.3818H1.13603V11.9346H8.16025C5.80885 13.0618 2.35459 15.0082 0.779701 17.3236C-0.492491 19.1945 -0.00809813 21.2538 0.817098 22.1259C0.824154 22.1333 0.845322 22.1541 0.845322 22.1541C0.845322 22.1541 0.86649 22.1756 0.873898 22.1827C1.74566 23.0079 3.8053 23.4923 5.67619 22.2201C7.99196 20.6455 9.938 17.1913 11.0652 14.8399V21.8641H11.618V14.9154C12.7505 17.2647 14.68 20.6625 16.9707 22.2201C18.8416 23.4923 20.9009 23.0079 21.773 22.1827C21.7804 22.1756 21.8016 22.1541 21.8016 22.1541C21.8016 22.1541 21.8231 22.1329 21.8298 22.1259C22.655 21.2541 23.1394 19.1948 21.8672 17.3236C20.3092 15.0325 16.9118 13.1034 14.5625 11.9709V11.9713ZM17.297 2.42984C18.626 1.53515 20.0108 1.79128 20.5876 2.33494C20.5925 2.33953 20.6063 2.35364 20.6063 2.35364C20.6063 2.35364 20.6204 2.36775 20.625 2.37234C20.6299 2.37692 20.6437 2.39104 20.6437 2.39104C20.6437 2.39104 20.6578 2.40515 20.6624 2.40973C21.2064 2.98656 21.4625 4.3713 20.5675 5.70029C19.0018 8.02594 13.1802 9.81674 13.1802 9.81674C13.1802 9.81674 14.9714 3.99486 17.2967 2.42949L17.297 2.42984Z" fill="white"/>
</g>
<defs>
<clipPath id="clip0_4414_8784">
<rect width="23" height="23" fill="white"/>
</clipPath>
</defs>
</svg>
