<svg width="430" height="319" viewBox="0 0 430 319" fill="none" xmlns="http://www.w3.org/2000/svg">
<g filter="url(#filter0_d_4314_6671)">
<path d="M430 0H-18V234.846C-18 273.589 14.668 305 54.9613 305C95.2546 305 127.923 273.589 127.923 234.846V219.442C127.998 219.442 128.069 219.442 128.145 219.442C153.085 219.442 173.301 200.004 173.301 176.023C173.301 175.929 173.301 175.835 173.301 175.745C173.212 162.129 184.539 150.999 198.699 150.999H311.438C329.496 150.999 344.137 136.921 344.137 119.557C344.137 118.475 344.079 117.406 343.968 116.349H430V0Z" fill="white"/>
</g>
<defs>
<filter id="filter0_d_4314_6671" x="-24" y="-6" width="468" height="325" filterUnits="userSpaceOnUse" color-interpolation-filters="sRGB">
<feFlood flood-opacity="0" result="BackgroundImageFix"/>
<feColorMatrix in="SourceAlpha" type="matrix" values="0 0 0 0 0 0 0 0 0 0 0 0 0 0 0 0 0 0 127 0" result="hardAlpha"/>
<feOffset dx="4" dy="4"/>
<feGaussianBlur stdDeviation="5"/>
<feComposite in2="hardAlpha" operator="out"/>
<feColorMatrix type="matrix" values="0 0 0 0 0.554724 0 0 0 0 0.554724 0 0 0 0 0.554724 0 0 0 0.25 0"/>
<feBlend mode="normal" in2="BackgroundImageFix" result="effect1_dropShadow_4314_6671"/>
<feBlend mode="normal" in="SourceGraphic" in2="effect1_dropShadow_4314_6671" result="shape"/>
</filter>
</defs>
</svg>

