<svg width="39" height="38" viewBox="0 0 39 38" fill="none" xmlns="http://www.w3.org/2000/svg">
<g filter="url(#filter0_b_4226_3050)">
<rect width="38.5256" height="37.7551" rx="11" fill="white" fill-opacity="0.5"/>
<rect width="38.5256" height="37.7551" rx="11" fill="fill"/>
<rect x="1" y="1" width="36.5256" height="35.7551" rx="10" stroke="url(#paint1_linear_4226_3050)" stroke-width="2"/>
</g>
<path d="M16.1779 24.2809L9.42304 17.5309C9.21281 17.321 8.8729 17.3213 8.6631 17.5316L8.15754 18.0384C7.94688 18.2496 7.94752 18.5923 8.15927 18.8026L16.2509 26.8437C16.4693 27.0608 16.8245 27.0504 17.0298 26.8209L30.8624 11.3655C31.0585 11.1466 31.0432 10.8108 30.8282 10.6104L30.3278 10.1441C30.1075 9.93899 29.7622 9.95475 29.5614 10.1791L16.9579 24.2591C16.7522 24.4891 16.3961 24.499 16.1779 24.2809Z" fill="url(#paint2_linear_4226_3050)" fill-opacity="0.15" stroke="url(#paint3_linear_4226_3050)" stroke-width="2" stroke-miterlimit="10"/>
<defs>
<filter id="filter0_b_4226_3050" x="-4" y="-4" width="46.5256" height="45.7551" filterUnits="userSpaceOnUse" color-interpolation-filters="sRGB">
<feFlood flood-opacity="0" result="BackgroundImageFix"/>
<feGaussianBlur in="BackgroundImageFix" stdDeviation="2"/>
<feComposite in2="SourceAlpha" operator="in" result="effect1_backgroundBlur_4226_3050"/>
<feBlend mode="normal" in="SourceGraphic" in2="effect1_backgroundBlur_4226_3050" result="shape"/>
</filter>
<linearGradient id="paint0_linear_4226_3050" x1="-5" y1="-5" x2="34.5" y2="35" gradientUnits="userSpaceOnUse">
<stop stop-color="#ADD4EA" stop-opacity="0.9"/>
<stop offset="1" stop-color="#BBCFE5" stop-opacity="0.5"/>
</linearGradient>
<linearGradient id="paint1_linear_4226_3050" x1="-8.11606" y1="-2.72004" x2="3.74252" y2="47.7655" gradientUnits="userSpaceOnUse">
<stop stop-color="#ECF5FF"/>
<stop offset="0.883352" stop-color="white" stop-opacity="0.5"/>
</linearGradient>
<linearGradient id="paint2_linear_4226_3050" x1="8" y1="22" x2="29" y2="12" gradientUnits="userSpaceOnUse">
<stop stop-color="white"/>
<stop offset="0.735" stop-color="#999999"/>
</linearGradient>
<linearGradient id="paint3_linear_4226_3050" x1="32.4107" y1="26.9456" x2="7.46193" y2="13.8377" gradientUnits="userSpaceOnUse">
<stop offset="0.247771" stop-color="white" stop-opacity="0.7"/>
<stop offset="0.636811" stop-color="white"/>
<stop offset="0.935455" stop-color="white" stop-opacity="0.3"/>
<stop offset="1" stop-color="white" stop-opacity="0"/>
</linearGradient>
</defs>
</svg>
