<svg width="18" height="18" viewBox="0 0 18 18" fill="none" xmlns="http://www.w3.org/2000/svg">
<g filter="url(#filter0_b_388_167)">
<rect width="18" height="18" rx="7" fill="white" fill-opacity="0.7"/>
<rect width="18" height="18" rx="7" fill="url(#paint0_linear_388_167)"/>
<rect x="0.5" y="0.5" width="17" height="17" rx="6.5" stroke="white"/>
</g>
<mask id="path-3-inside-1_388_167" fill="white">
<path d="M13.9454 9.57123H9.57175V13.9449C9.57175 14.2605 9.31612 14.5161 9.0005 14.5161C8.68489 14.5161 8.42925 14.2605 8.42925 13.9449V9.57123H4.05562C3.74001 9.57123 3.48438 9.3156 3.48438 8.99998C3.48438 8.68437 3.74001 8.42873 4.05562 8.42873H8.42925V4.0551C8.42925 3.73949 8.68489 3.48386 9.0005 3.48386C9.31612 3.48386 9.57175 3.73949 9.57175 4.0551V8.42873H13.9454C14.261 8.42873 14.5166 8.68437 14.5166 8.99998C14.5166 9.3156 14.261 9.57123 13.9454 9.57123Z"/>
</mask>
<path d="M13.9454 9.57123H9.57175V13.9449C9.57175 14.2605 9.31612 14.5161 9.0005 14.5161C8.68489 14.5161 8.42925 14.2605 8.42925 13.9449V9.57123H4.05562C3.74001 9.57123 3.48438 9.3156 3.48438 8.99998C3.48438 8.68437 3.74001 8.42873 4.05562 8.42873H8.42925V4.0551C8.42925 3.73949 8.68489 3.48386 9.0005 3.48386C9.31612 3.48386 9.57175 3.73949 9.57175 4.0551V8.42873H13.9454C14.261 8.42873 14.5166 8.68437 14.5166 8.99998C14.5166 9.3156 14.261 9.57123 13.9454 9.57123Z" fill="white"/>
<path d="M9.57175 9.57123H7.57175V7.57123H9.57175V9.57123ZM8.42925 9.57123V7.57123H10.4293V9.57123H8.42925ZM8.42925 8.42873H10.4293V10.4287H8.42925V8.42873ZM9.57175 8.42873V10.4287H7.57175V8.42873H9.57175ZM13.9454 11.5712H9.57175V7.57123H13.9454V11.5712ZM11.5718 9.57123V13.9449H7.57175V9.57123H11.5718ZM11.5718 13.9449C11.5718 15.365 10.4207 16.5161 9.0005 16.5161V12.5161C8.21155 12.5161 7.57175 13.1559 7.57175 13.9449H11.5718ZM9.0005 16.5161C7.58032 16.5161 6.42925 15.365 6.42925 13.9449H10.4293C10.4293 13.1559 9.78946 12.5161 9.0005 12.5161V16.5161ZM6.42925 13.9449V9.57123H10.4293V13.9449H6.42925ZM8.42925 11.5712H4.05562V7.57123H8.42925V11.5712ZM4.05562 11.5712C2.63544 11.5712 1.48438 10.4202 1.48438 8.99998H5.48438C5.48438 8.21103 4.84458 7.57123 4.05562 7.57123V11.5712ZM1.48438 8.99998C1.48438 7.5798 2.63544 6.42873 4.05562 6.42873V10.4287C4.84458 10.4287 5.48438 9.78894 5.48438 8.99998H1.48438ZM4.05562 6.42873H8.42925V10.4287H4.05562V6.42873ZM6.42925 8.42873V4.0551H10.4293V8.42873H6.42925ZM6.42925 4.0551C6.42925 2.63492 7.58032 1.48386 9.0005 1.48386V5.48386C9.78946 5.48386 10.4293 4.84406 10.4293 4.0551H6.42925ZM9.0005 1.48386C10.4207 1.48386 11.5718 2.63492 11.5718 4.0551H7.57175C7.57175 4.84406 8.21155 5.48386 9.0005 5.48386V1.48386ZM11.5718 4.0551V8.42873H7.57175V4.0551H11.5718ZM9.57175 6.42873H13.9454V10.4287H9.57175V6.42873ZM13.9454 6.42873C15.3656 6.42873 16.5166 7.5798 16.5166 8.99998H12.5166C12.5166 9.78894 13.1564 10.4287 13.9454 10.4287V6.42873ZM16.5166 8.99998C16.5166 10.4202 15.3656 11.5712 13.9454 11.5712V7.57123C13.1564 7.57123 12.5166 8.21103 12.5166 8.99998H16.5166Z" fill="url(#paint1_linear_388_167)" mask="url(#path-3-inside-1_388_167)"/>
<defs>
<filter id="filter0_b_388_167" x="-4" y="-4" width="26" height="26" filterUnits="userSpaceOnUse" color-interpolation-filters="sRGB">
<feFlood flood-opacity="0" result="BackgroundImageFix"/>
<feGaussianBlur in="BackgroundImageFix" stdDeviation="2"/>
<feComposite in2="SourceAlpha" operator="in" result="effect1_backgroundBlur_388_167"/>
<feBlend mode="normal" in="SourceGraphic" in2="effect1_backgroundBlur_388_167" result="shape"/>
</filter>
<linearGradient id="paint0_linear_388_167" x1="3.19355" y1="3.19355" x2="16.7091" y2="18" gradientUnits="userSpaceOnUse">
<stop stop-color="#9ABCE1" stop-opacity="0.7"/>
<stop offset="1" stop-color="#BBCFE5" stop-opacity="0.5"/>
</linearGradient>
<linearGradient id="paint1_linear_388_167" x1="1.16025" y1="15.3109" x2="4.6885" y2="0.590497" gradientUnits="userSpaceOnUse">
<stop stop-color="#EEF4FA"/>
<stop offset="1" stop-color="white" stop-opacity="0"/>
</linearGradient>
</defs>
</svg>
