<svg width="393" height="557" viewBox="0 0 393 557" fill="none" xmlns="http://www.w3.org/2000/svg">
<g filter="url(#filter0_bf_4844_7633)">
<path d="M343.718 402.803C353.173 387.004 359.82 366.898 359.82 345.006C359.82 331.347 356.631 318.383 352.676 306.728C369.315 287.031 380 256.459 380 222.133C380 184.998 367.496 152.259 348.478 132.928C357.106 124.576 362.266 113.989 362.266 102.469C362.266 75.4886 333.971 53.6158 299.067 53.6158C289.031 53.6158 279.545 55.4268 271.116 58.6442C265.074 49.1747 260.532 14.7255 209.59 14.01C162.598 13.3501 145.719 45.4737 138.338 55.6612C127.156 46.4458 109.927 40.5391 90.5938 40.5391C56.8863 40.5391 29.5625 58.4888 29.5625 80.6329C29.5625 80.7587 29.5674 80.8846 29.5699 81.0129C12.9462 93.5814 2 111.511 2 134.297C2 162.637 11.1055 183.248 24.2223 198.373C11.135 215.583 3.23047 237.927 3.23047 262.351C3.23047 291.832 14.7477 318.285 32.9955 336.328C23.9097 346.962 18.2422 362.005 18.2422 378.685C18.2422 397.858 25.7308 414.868 37.2898 425.507C14.3687 434.833 -2.54289 451.357 4.70703 475.527C7.30824 484.202 11.5115 490.994 16.992 496.299C12.0726 501.784 9.21547 507.856 9.59691 513.861C11.012 536.126 51.9743 553 78.2891 553C112.742 553 126.393 535.734 134.891 528.574C153.02 536.363 178.348 545.105 202.566 545.105C233.793 545.105 245.625 544.054 265.566 531.781C275.937 538.932 301.41 545.351 314.539 545.351C351.847 545.351 380 510.511 380 469.358C380 425.934 365.234 407.675 343.718 402.803Z" fill="url(#paint0_linear_4844_7633)" fill-opacity="0.8"/>
</g>
<g filter="url(#filter1_f_4844_7633)">
<path d="M43.3959 543.447C55.8242 549.858 71.6513 554 83.7149 554H83.7253C110.442 554 122.354 542.898 131.053 534.791L131.055 534.789L131.197 534.656C132.596 533.355 133.918 532.124 135.249 530.992L141.387 525.769L148.758 528.967C174.143 539.982 196.515 545.566 215.249 545.566C247.734 545.566 257.154 544.432 275.109 533.278L282.323 528.796L289.297 533.652C297.311 539.231 321.405 545.832 333.747 545.832C348.733 545.832 362.763 538.925 373.254 526.384C378.483 520.13 382.601 512.809 385.487 504.62C388.482 496.121 390 487.101 390 477.811C390 458.265 387.044 443.395 381.213 433.614C376.686 426.021 370.503 421.553 361.755 419.552L344.196 415.536L353.457 399.911C363.247 383.394 368.641 363.868 368.641 344.936C368.641 333.872 366.461 322.221 361.776 308.28L359.401 301.212L364.167 295.515C371.907 286.261 378.35 274.176 382.801 260.559C387.575 245.951 389.997 230.166 389.997 213.642C389.997 196.015 387.109 178.62 381.642 163.334C376.491 148.926 369.141 136.561 360.388 127.579L351.145 118.093L360.614 108.84C365.456 104.107 371.227 96.2639 371.227 85.7763C371.227 76.0138 366.071 66.6123 356.708 59.3042C346.342 51.2131 332.369 46.7576 317.365 46.7576C308.575 46.7576 300.181 48.2762 292.418 51.2685L282.518 55.086C269.747 16.3782 243.057 4.99238 222.204 3.13918C206.597 1.75221 170.243 10.1481 149.68 54.8276L138.999 45.943C129.097 37.7043 113.299 32.7847 96.7396 32.7847C82.207 32.7847 68.1613 36.5732 58.2046 43.1774C53.3526 46.3964 45.219 53.1614 45.1721 62.3625L45.1721 62.3627C45.1747 62.4681 45.1773 62.5735 45.1773 62.6788L45.2607 69.3542L39.9971 73.3721C32.3688 79.1959 26.4541 85.9714 22.4173 93.5063C18.1591 101.455 16 110.297 16 119.786C16 132.578 17.9325 144.336 21.7427 154.729C25.0894 163.866 29.9962 172.234 36.3249 179.603L43.2839 187.707L36.851 196.247C24.2456 212.982 17.3022 234.422 17.3022 256.615C17.3022 283.361 27.3709 308.752 44.9273 326.273L53.5688 334.902L45.6722 344.235C37.7417 353.608 33.1918 366.979 33.1918 380.918C33.1918 396.892 39.1507 411.964 49.1334 421.236L64.299 435.325L45.2268 443.163C34.3794 447.619 26.1937 453.305 21.5526 459.606C16.9454 465.86 15.9167 472.53 18.3153 480.603C20.3285 487.384 23.4617 492.783 27.8892 497.112L36.9291 505.946L28.5273 515.406C25.5087 518.807 23.8627 522.129 24.0138 524.52C24.3654 530.127 31.9755 537.557 43.3959 543.447Z" stroke="white" stroke-width="2" stroke-miterlimit="10" stroke-linejoin="round"/>
</g>
<defs>
<filter id="filter0_bf_4844_7633" x="-18" y="-6" width="418" height="579" filterUnits="userSpaceOnUse" color-interpolation-filters="sRGB">
<feFlood flood-opacity="0" result="BackgroundImageFix"/>
<feGaussianBlur in="BackgroundImageFix" stdDeviation="10"/>
<feComposite in2="SourceAlpha" operator="in" result="effect1_backgroundBlur_4844_7633"/>
<feBlend mode="normal" in="SourceGraphic" in2="effect1_backgroundBlur_4844_7633" result="shape"/>
<feGaussianBlur stdDeviation="1" result="effect2_foregroundBlur_4844_7633"/>
</filter>
<filter id="filter1_f_4844_7633" x="13" y="0" width="380" height="557" filterUnits="userSpaceOnUse" color-interpolation-filters="sRGB">
<feFlood flood-opacity="0" result="BackgroundImageFix"/>
<feBlend mode="normal" in="SourceGraphic" in2="BackgroundImageFix" result="shape"/>
<feGaussianBlur stdDeviation="1" result="effect1_foregroundBlur_4844_7633"/>
</filter>
<linearGradient id="paint0_linear_4844_7633" x1="64.4836" y1="68.3229" x2="337.321" y2="552.607" gradientUnits="userSpaceOnUse">
<stop stop-color="#E4EEFB" stop-opacity="0.83"/>
<stop offset="1" stop-color="white"/>
</linearGradient>
</defs>
</svg>
