<svg width="23" height="23" viewBox="0 0 23 23" fill="none" xmlns="http://www.w3.org/2000/svg">
<g filter="url(#filter0_b_6804_351)">
<rect width="23" height="23" rx="11.5" fill="white" fill-opacity="0.5"/>
<rect width="23" height="23" rx="11.5" fill="url(#paint0_linear_6804_351)"/>
<rect x="0.5" y="0.5" width="22" height="22" rx="11" stroke="white" stroke-opacity="0.9"/>
</g>
<path d="M8.81093 15.0693L4.53285 10.8076C4.3997 10.675 4.18443 10.6752 4.05155 10.808L3.73137 11.128C3.59795 11.2613 3.59836 11.4777 3.73246 11.6105L8.85718 16.6874C8.99551 16.8244 9.22047 16.8179 9.35048 16.673L18.1111 6.91488C18.2353 6.77663 18.2256 6.56462 18.0894 6.4381L17.7725 6.14374C17.633 6.01421 17.4143 6.02417 17.2871 6.16583L9.30492 15.0555C9.17463 15.2007 8.94913 15.207 8.81093 15.0693Z" fill="url(#paint1_linear_6804_351)" fill-opacity="0.3" stroke="url(#paint2_linear_6804_351)" stroke-miterlimit="10"/>
<defs>
<filter id="filter0_b_6804_351" x="-4" y="-4" width="31" height="31" filterUnits="userSpaceOnUse" color-interpolation-filters="sRGB">
<feFlood flood-opacity="0" result="BackgroundImageFix"/>
<feGaussianBlur in="BackgroundImageFix" stdDeviation="2"/>
<feComposite in2="SourceAlpha" operator="in" result="effect1_backgroundBlur_6804_351"/>
<feBlend mode="normal" in="SourceGraphic" in2="effect1_backgroundBlur_6804_351" result="shape"/>
</filter>
<linearGradient id="paint0_linear_6804_351" x1="3.49173" y1="4.21667" x2="20.9317" y2="20.9729" gradientUnits="userSpaceOnUse">
<stop stop-color="#CCD3D8" stop-opacity="0.45"/>
<stop offset="1" stop-color="#BBCFE5" stop-opacity="0.5"/>
</linearGradient>
<linearGradient id="paint1_linear_6804_351" x1="3.63159" y1="13.6292" x2="16.9163" y2="7.2835" gradientUnits="userSpaceOnUse">
<stop stop-color="white"/>
<stop offset="0.735" stop-color="#999999"/>
</linearGradient>
<linearGradient id="paint2_linear_6804_351" x1="19.0917" y1="16.7517" x2="3.31205" y2="8.43545" gradientUnits="userSpaceOnUse">
<stop offset="0.247771" stop-color="white" stop-opacity="0.7"/>
<stop offset="0.636811" stop-color="white"/>
<stop offset="0.935455" stop-color="white" stop-opacity="0.3"/>
<stop offset="1" stop-color="white" stop-opacity="0"/>
</linearGradient>
</defs>
</svg>
