<svg width="30" height="30" viewBox="0 0 30 30" fill="none" xmlns="http://www.w3.org/2000/svg">
<g filter="url(#filter0_b_4844_7629)">
<rect width="30" height="30" rx="15" fill="white" fill-opacity="0.5"/>
<rect width="30" height="30" rx="15" fill="url(#paint0_linear_4844_7629)"/>
<rect x="0.5" y="0.5" width="29" height="29" rx="14.5" stroke="white" stroke-opacity="0.9"/>
</g>
<path d="M11.7557 19.7608L6.17556 14.202C6.00188 14.0291 5.72109 14.0293 5.54778 14.2025L5.13014 14.6199C4.95612 14.7938 4.95665 15.076 5.13157 15.2492L11.816 21.8713C11.9964 22.05 12.2898 22.0415 12.4594 21.8525L23.8864 9.12454C24.0483 8.94422 24.0357 8.66768 23.8581 8.50265L23.4447 8.1187C23.2627 7.94976 22.9774 7.96274 22.8116 8.14751L12.4 19.7428C12.2301 19.9322 11.9359 19.9404 11.7557 19.7608Z" fill="url(#paint1_linear_4844_7629)" fill-opacity="0.3" stroke="url(#paint2_linear_4844_7629)" stroke-width="2" stroke-miterlimit="10"/>
<defs>
<filter id="filter0_b_4844_7629" x="-4" y="-4" width="38" height="38" filterUnits="userSpaceOnUse" color-interpolation-filters="sRGB">
<feFlood flood-opacity="0" result="BackgroundImageFix"/>
<feGaussianBlur in="BackgroundImageFix" stdDeviation="2"/>
<feComposite in2="SourceAlpha" operator="in" result="effect1_backgroundBlur_4844_7629"/>
<feBlend mode="normal" in="SourceGraphic" in2="effect1_backgroundBlur_4844_7629" result="shape"/>
</filter>
<linearGradient id="paint0_linear_4844_7629" x1="4.55443" y1="5.5" x2="27.3022" y2="27.356" gradientUnits="userSpaceOnUse">
<stop stop-color="#70A2D9" stop-opacity="0.7"/>
<stop offset="1" stop-color="#7C93CD" stop-opacity="0.5"/>
</linearGradient>
<linearGradient id="paint1_linear_4844_7629" x1="5" y1="17.8824" x2="22.3279" y2="9.60535" gradientUnits="userSpaceOnUse">
<stop stop-color="white"/>
<stop offset="0.735" stop-color="#999999"/>
</linearGradient>
<linearGradient id="paint2_linear_4844_7629" x1="25.1653" y1="21.9552" x2="4.58321" y2="11.1079" gradientUnits="userSpaceOnUse">
<stop offset="0.247771" stop-color="white" stop-opacity="0.7"/>
<stop offset="0.636811" stop-color="white"/>
<stop offset="0.935455" stop-color="white" stop-opacity="0.3"/>
<stop offset="1" stop-color="white" stop-opacity="0"/>
</linearGradient>
</defs>
</svg>
