<svg width="37" height="34" viewBox="0 0 37 34" fill="none" xmlns="http://www.w3.org/2000/svg">
<g filter="url(#filter0_bd_4844_7618)">
<rect x="1" width="35" height="32" rx="16" fill="white" fill-opacity="0.39" shape-rendering="crispEdges"/>
</g>
<path d="M9.98438 12C9.98438 13.9375 11.3906 15.7656 13.4219 16.5L12.7344 17.4531C11.2109 16.8438 10 15.6328 9.40625 14.125C8.8125 15.8047 7.54688 17.1406 5.90625 17.7969L5.25 16.7969C7.32812 16.0312 8.76562 14.0938 8.78125 11.9531V10.2344H9.98438V12ZM16.75 9.39062V19.7969H15.5156V13.6875H12.4219V12.6562H15.5156V9.39062H16.75ZM17.0625 21.9375V22.9688H7.76562V18.6094H9V21.9375H17.0625ZM25.0781 10.3906V11.4219H20.8594V13.1562H24.9219V14.125H20.8594V16.0469C22.8828 16.0391 24.1484 15.9688 25.6406 15.6719L25.7656 16.6875C24.1406 17 22.8281 17.0781 20.5625 17.0781H19.6875V10.3906H25.0781ZM30.8594 9.39062V17.8125H29.6875V14.0156H27.7344V17.7188H26.5938V9.65625H27.7344V13.0156H29.6875V9.39062H30.8594ZM30.8594 18.5312V23.2656H29.6562V19.5312H21.5V18.5312H30.8594Z" fill="#595959"/>
<defs>
<filter id="filter0_bd_4844_7618" x="-23" y="-24" width="83" height="80" filterUnits="userSpaceOnUse" color-interpolation-filters="sRGB">
<feFlood flood-opacity="0" result="BackgroundImageFix"/>
<feGaussianBlur in="BackgroundImageFix" stdDeviation="12"/>
<feComposite in2="SourceAlpha" operator="in" result="effect1_backgroundBlur_4844_7618"/>
<feColorMatrix in="SourceAlpha" type="matrix" values="0 0 0 0 0 0 0 0 0 0 0 0 0 0 0 0 0 0 127 0" result="hardAlpha"/>
<feOffset dy="1"/>
<feGaussianBlur stdDeviation="0.5"/>
<feComposite in2="hardAlpha" operator="out"/>
<feColorMatrix type="matrix" values="0 0 0 0 0 0 0 0 0 0 0 0 0 0 0 0 0 0 0.1 0"/>
<feBlend mode="normal" in2="effect1_backgroundBlur_4844_7618" result="effect2_dropShadow_4844_7618"/>
<feBlend mode="normal" in="SourceGraphic" in2="effect2_dropShadow_4844_7618" result="shape"/>
</filter>
</defs>
</svg>
