<svg width="37" height="34" viewBox="0 0 37 34" fill="none" xmlns="http://www.w3.org/2000/svg">
<g opacity="0.8" filter="url(#filter0_bd_4844_7625)">
<rect x="1" width="35" height="32" rx="16" fill="url(#paint0_linear_4844_7625)" fill-opacity="0.39" shape-rendering="crispEdges"/>
</g>
<path d="M17.2188 9.375V16.5938H15.9844V9.375H17.2188ZM17.2188 17.2656V20.5781H9.375V22.1094H17.75V23.1094H8.17188V19.6562H16V18.25H8.125V17.2656H17.2188ZM13.875 10.3281V11.3125H12.4688V14.8594C13.1875 14.8203 13.8984 14.75 14.5625 14.6719L14.625 15.5781C11.8438 15.9844 8.57812 16.0938 6.125 16.0938L5.96875 15.0781L7.75 15.0625V11.3125H6.35938V10.3281H13.875ZM8.9375 15.0312C9.70312 15.0156 10.4922 14.9922 11.2812 14.9375V11.3125H8.9375V15.0312ZM26.5312 10.6719C26.5312 12.625 29.0938 14.3281 31.5938 14.6719L31.0938 15.6719C28.9375 15.3125 26.8047 14.1172 25.9062 12.4062C25.0156 14.125 22.875 15.3125 20.7188 15.6719L20.2188 14.6719C22.7188 14.3281 25.2656 12.6562 25.2656 10.6719V9.875H26.5312V10.6719ZM32.2188 17.2031V18.2344H26.4688V23.2656H25.2656V18.2344H19.5625V17.2031H32.2188Z" fill="white"/>
<defs>
<filter id="filter0_bd_4844_7625" x="-23" y="-24" width="83" height="80" filterUnits="userSpaceOnUse" color-interpolation-filters="sRGB">
<feFlood flood-opacity="0" result="BackgroundImageFix"/>
<feGaussianBlur in="BackgroundImageFix" stdDeviation="12"/>
<feComposite in2="SourceAlpha" operator="in" result="effect1_backgroundBlur_4844_7625"/>
<feColorMatrix in="SourceAlpha" type="matrix" values="0 0 0 0 0 0 0 0 0 0 0 0 0 0 0 0 0 0 127 0" result="hardAlpha"/>
<feOffset dy="1"/>
<feGaussianBlur stdDeviation="0.5"/>
<feComposite in2="hardAlpha" operator="out"/>
<feColorMatrix type="matrix" values="0 0 0 0 0 0 0 0 0 0 0 0 0 0 0 0 0 0 0.1 0"/>
<feBlend mode="normal" in2="effect1_backgroundBlur_4844_7625" result="effect2_dropShadow_4844_7625"/>
<feBlend mode="normal" in="SourceGraphic" in2="effect2_dropShadow_4844_7625" result="shape"/>
</filter>
<linearGradient id="paint0_linear_4844_7625" x1="18.5" y1="0" x2="18.5" y2="32" gradientUnits="userSpaceOnUse">
<stop stop-color="#4879AF"/>
<stop offset="1" stop-color="#7C93CD"/>
</linearGradient>
</defs>
</svg>
