<svg width="294" height="9" viewBox="0 0 294 9" fill="none" xmlns="http://www.w3.org/2000/svg">
<path d="M148.698 4.68431H151.417V4.46798H148.982C149.098 4.40972 149.218 4.34732 149.341 4.28106C150.468 3.67405 151.251 3.0535 151.671 2.43683C151.978 1.98498 152.017 1.54888 151.995 1.26256C151.969 0.918673 151.837 0.590801 151.643 0.38538C151.64 0.382205 151.632 0.374198 151.629 0.371437C151.626 0.368814 151.618 0.360669 151.615 0.357631C151.409 0.162979 151.081 0.0312774 150.737 0.00504759C150.451 -0.0167646 150.015 0.0217518 149.563 0.329055C148.946 0.748456 148.326 1.53231 147.719 2.65868C147.653 2.78154 147.59 2.90192 147.532 3.01802V0.582518H147.316V3.30158C146.872 2.3823 146.117 1.05272 145.221 0.443224C144.489 -0.0547287 143.683 0.134816 143.342 0.457719C143.339 0.46048 143.331 0.468763 143.331 0.468763C143.331 0.468763 143.322 0.477046 143.32 0.479945C142.997 0.821209 142.807 1.62702 143.305 2.3591C143.915 3.25561 145.244 4.01048 146.163 4.45362H143.445V4.66995H146.193C145.273 5.11103 143.921 5.87266 143.305 6.77869C142.807 7.51078 142.997 8.31658 143.32 8.65785C143.322 8.66075 143.331 8.66889 143.331 8.66889C143.331 8.66889 143.339 8.67731 143.342 8.68007C143.683 9.00298 144.489 9.19252 145.221 8.69471C146.127 8.07858 146.889 6.72692 147.33 5.80681V8.55541H147.546V5.83635C147.989 6.75563 148.744 8.08521 149.641 8.69471C150.373 9.19252 151.179 9.00298 151.52 8.68007C151.523 8.67731 151.531 8.66889 151.531 8.66889C151.531 8.66889 151.539 8.66061 151.542 8.65785C151.865 8.31672 152.055 7.51091 151.557 6.77869C150.947 5.88218 149.618 5.12732 148.698 4.68417V4.68431ZM149.768 0.950701C150.288 0.600602 150.83 0.700828 151.056 0.913565C151.058 0.91536 151.063 0.920882 151.063 0.920882C151.063 0.920882 151.069 0.926404 151.071 0.928199C151.073 0.929993 151.078 0.935516 151.078 0.935516C151.078 0.935516 151.083 0.941038 151.085 0.942832C151.298 1.16855 151.398 1.7104 151.048 2.23044C150.435 3.14048 148.157 3.84123 148.157 3.84123C148.157 3.84123 148.858 1.5631 149.768 0.950563L149.768 0.950701Z" fill="white"/>
<path d="M1 4L147 4.00001L293 4.00003" stroke="white" stroke-linecap="round"/>
</svg>
