<svg width="12" height="12" viewBox="0 0 12 12" fill="none" xmlns="http://www.w3.org/2000/svg">
<path d="M10.8375 11.9992C10.7312 11.9992 10.6319 11.9578 10.5569 11.8827L6.33616 7.66174C6.24625 7.57183 6.12743 7.52257 6 7.52257C5.87257 7.52257 5.75375 7.57183 5.66384 7.66174L1.44313 11.8827C1.36808 11.9578 1.26879 11.9992 1.16248 11.9992C1.05616 11.9992 0.956873 11.9578 0.881824 11.8827L0.116482 11.1173C0.0414332 11.0423 0 10.943 0 10.8367C0 10.7303 0.0414332 10.6311 0.116482 10.556L4.3372 6.335C4.52248 6.14972 4.52248 5.84872 4.3372 5.66343L0.118046 1.44322C0.0429967 1.36817 0.00156352 1.26888 0.00156352 1.16255C0.00156352 1.05623 0.0429967 0.956935 0.118046 0.881881L0.883388 0.11649C0.958436 0.0414359 1.05772 0 1.16404 0C1.27036 0 1.36964 0.0414359 1.44469 0.11649L5.66541 4.33748C5.75531 4.42739 5.87414 4.47664 6.00156 4.47664C6.12899 4.47664 6.24782 4.42739 6.33772 4.33748L10.5569 0.11649C10.6319 0.0414359 10.7312 0 10.8375 0C10.9438 0 11.0431 0.0414359 11.1182 0.11649L11.8835 0.881881C11.9586 0.956935 12 1.05623 12 1.16255C12 1.26888 11.9586 1.36817 11.8835 1.44322L7.6628 5.66421C7.47752 5.8495 7.47752 6.1505 7.6628 6.33579L11.8835 10.5568C11.9586 10.6318 12 10.7311 12 10.8374C12 10.9438 11.9586 11.0431 11.8835 11.1181L11.1182 11.8835C11.0431 11.9586 10.9438 12 10.8375 12V11.9992Z" fill="#4879AF"/>
</svg>
